<?xml version="1.0" encoding="utf-8"?>
<svg version="1.1" id="Layer_1" x="0px" y="0px" viewBox="0 0 245 240" style="enable-background:new 0 0 245 240;" xmlns="http://www.w3.org/2000/svg">
  <path class="st0" d="M 207.351 56.15 C 179.582 35.323 153.162 35.901 153.162 35.901 L 150.462 38.987 C 183.246 49.015 198.48 63.478 198.48 63.478 C 178.425 52.486 158.755 47.086 140.434 44.965 C 126.55 43.422 113.244 43.808 101.48 45.351 C 100.323 45.351 99.359 45.543 98.202 45.736 C 91.452 46.315 75.061 48.822 54.426 57.885 C 47.291 61.164 43.049 63.478 43.049 63.478 C 43.049 63.478 59.055 48.243 93.766 38.215 L 91.838 35.901 C 91.838 35.901 65.418 35.323 37.649 56.15 C 37.649 56.15 9.88 106.482 9.88 168.577 C 9.88 168.577 26.078 196.54 68.697 197.89 C 68.697 197.89 75.832 189.212 81.617 181.884 C 57.126 174.556 47.87 159.128 47.87 159.128 C 47.87 159.128 49.798 160.478 53.269 162.406 C 53.462 162.599 53.655 162.792 54.041 162.985 C 54.619 163.371 55.198 163.563 55.776 163.949 C 60.597 166.649 65.418 168.77 69.854 170.506 C 77.76 173.591 87.21 176.677 98.202 178.798 C 112.665 181.498 129.635 182.462 148.148 178.991 C 157.212 177.448 166.468 174.748 176.11 170.699 C 182.86 168.192 190.381 164.528 198.287 159.321 C 198.287 159.321 188.645 175.134 163.383 182.269 C 169.168 189.597 176.11 197.89 176.11 197.89 C 218.729 196.54 235.121 168.577 235.121 168.577 C 235.121 106.482 207.351 56.15 207.351 56.15 Z M 86.438 150.643 C 75.639 150.643 66.768 141.001 66.768 129.237 C 66.768 117.474 75.446 107.832 86.438 107.832 C 97.43 107.832 106.301 117.474 106.108 129.237 C 106.108 141.001 97.43 150.643 86.438 150.643 Z M 156.826 150.643 C 146.027 150.643 137.156 141.001 137.156 129.237 C 137.156 117.474 145.834 107.832 156.826 107.832 C 167.818 107.832 176.496 117.474 176.496 129.237 C 176.496 141.001 167.818 150.643 156.826 150.643 Z" style="fill: white;"/>
</svg>