<?xml version="1.0" encoding="utf-8"?>
<svg width="24" height="24" viewBox="0 0 24 24" xmlns="http://www.w3.org/2000/svg">
  <path d="M 21.373 7.522 C 21.676 14.216 16.684 21.678 7.846 21.678 C 5.158 21.678 2.658 20.89 0.552 19.539 C 3.077 19.838 5.597 19.135 7.597 17.569 C 5.516 17.531 3.758 16.154 3.15 14.264 C 3.897 14.406 4.633 14.365 5.301 14.183 C 3.013 13.722 1.432 11.661 1.483 9.456 C 2.126 9.812 2.859 10.025 3.639 10.05 C 1.52 8.634 0.92 5.835 2.166 3.696 C 4.512 6.576 8.02 8.47 11.975 8.668 C 11.28 5.693 13.539 2.825 16.612 2.825 C 17.979 2.825 19.217 3.403 20.085 4.327 C 21.169 4.115 22.189 3.718 23.107 3.173 C 22.751 4.284 21.997 5.216 21.015 5.805 C 21.977 5.689 22.895 5.434 23.747 5.055 C 23.111 6.013 22.305 6.851 21.373 7.522 Z" style="fill: white;"/>
</svg>