<?xml version="1.0" encoding="utf-8"?>
<svg version="1.1" id="Layer_1" x="0px" y="0px" viewBox="0 0 300 300" style="enable-background:new 0 0 664 768;" xmlns="http://www.w3.org/2000/svg">
  <path class="st0" d="M 237.525 207.656 C 237.425 212.356 236.125 217.556 233.625 223.156 C 229.925 232.556 222.925 235.756 215.225 235.656 C 213.725 235.656 212.125 235.456 210.525 235.256 C 198.025 233.156 185.125 231.056 173.525 225.656 C 141.425 210.356 109.725 194.156 78.525 176.956 C 71.225 173.056 64.425 166.256 59.325 159.056 C 55.025 153.056 52.925 147.656 53.025 142.456 C 53.125 135.956 56.725 130.056 63.825 124.356 C 71.725 117.856 79.625 111.756 88.725 108.056 C 122.625 92.856 154.425 80.056 188.725 65.856 C 195.225 63.156 204.825 58.456 211.325 57.656 C 214.325 57.456 217.525 57.156 220.625 57.156 C 227.625 57.256 234.225 59.056 238.025 67.156 C 239.925 71.156 240.825 75.456 240.725 79.656 C 240.625 87.156 243.125 111.856 240.925 151.456 C 239.725 171.256 238.125 179.456 237.525 207.656 Z" style="fill: white; stroke: white; stroke-width: 13;"/>
</svg>