<svg id="Layer_3" data-name="Layer 3" xmlns="http://www.w3.org/2000/svg" viewBox="0 0 197.163 100"><defs><style>.cls-1,.cls-3{fill:#333;}.cls-1,.cls-2{stroke:#333;stroke-linejoin:round;stroke-width:3.8px;}.cls-2,.cls-4{fill:#fff;}</style></defs><title>Artboard 1</title><path class="cls-1" d="M151.332,15.838c-9.8,0-23.209,8.169-12.6,27.006.457.813-2.418,10.557-16.605,9.488-19.514-1.47-46.186-14.093-46.186-14.093s-2.28,1.563-1.17,8.353C76.36,56.343,85.239,65.9,91.681,72.844c7.292,7.861,15.856,15.1,26.553,17.223,8.676,1.724,11.521.886,20.292,1.022,9.142.142,18.979,1.147,27.695-2.3,9.171-3.622,12.274-13.25,10.972-23.483C176.487,59.762,155.7,45.136,162,40.4A19.441,19.441,0,0,1,172.077,36.7c4.933-.185,11.626-.637,14.79-2.372,6.184-3.389.977-6.976-2.232-8.232-1.709-.669-16.954-1.726-18.014-3.418A10.7,10.7,0,0,0,162.04,18.9a24.167,24.167,0,0,0-10.708-3.065Z"/><path class="cls-2" d="M151.332,9.838c-9.8,0-16.968,11.233-16.268,20.288a18.817,18.817,0,0,0,3.235,8.723c1.191,1.869,2.515,2.458.595,3.471-1.177.622-3.484.018-4.883.089-2.411.123-4.8.629-7.191.928-10.444,1.306-15.914-.036-25.889-3.415-4.614-1.562-8.862-3.8-13.306-5.765-1.461-.645-4.044-2.165-5.061.015-.556,1.19,3.559,6.858,3.559,6.858S73.657,33.8,74.767,40.592C76.36,50.343,85.239,59.9,91.681,66.844c7.292,7.861,15.856,15.1,26.553,17.223,8.676,1.724,11.521.886,20.292,1.022,9.142.142,18.979,1.147,27.695-2.3,9.171-3.622,14.17-13.434,9.744-22.755-2.4-5.051-20.27-20.9-13.963-25.639,2.8-2.1,8.641-1.228,11.888-1.175,3.465.057,11.36.893,14.117-1.914,6.156-6.268-16.053-7.352-18.624-9.208-1.658-1.2-1.7-3.727-2.762-5.419A10.7,10.7,0,0,0,162.04,12.9a24.167,24.167,0,0,0-10.708-3.065Z"/><path class="cls-3" d="M57.282,54.6c-4.545,0-15.629-2.17-27.365-4.467-6.232-1.22-12.677-2.481-17.579-3.285a2.507,2.507,0,0,1,.406-4.981c5.751.062,13.532.163,21.28.263,11.6.15,23.589.3,27.82.318a2.5,2.5,0,0,1,2.465,2.877L63.9,48.064C62.989,53.243,59.174,54.6,57.282,54.6Z"/><path class="cls-3" d="M12.744,43.938h.006c14.464.157,42.07.56,49.088.58a.43.43,0,0,1,.421.5l-.411,2.739c-.837,4.768-4.565,4.768-4.565,4.768-6.816,0-31.005-5.493-44.61-7.724a.434.434,0,0,1,.071-.863m0-4.145a4.579,4.579,0,0,0-.741,9.1c4.87.8,11.3,2.057,17.515,3.274,11.837,2.317,23.018,4.505,27.765,4.505,2.493,0,7.51-1.713,8.648-8.2.006-.034.011-.068.016-.1l.411-2.739a4.574,4.574,0,0,0-4.508-5.258c-4.218-.013-16.195-.168-27.777-.318-7.757-.1-15.548-.2-21.278-.263Z"/><path class="cls-4" d="M58.881,50.589c-4.385,0-15.589-1.142-27.452-2.351-6.519-.664-13.26-1.351-18.483-1.8a2.6,2.6,0,0,1,.006-5.181c5.836-.488,13.489-1.253,20.89-1.993,11.165-1.117,21.71-2.172,25.039-2.172,2.259.051,5.549,1.891,5.549,6.748s-3.29,6.7-5.5,6.748Z"/><path class="cls-3" d="M58.881,39.165s3.476.08,3.476,4.676-3.476,4.676-3.476,4.676c-6.755,0-31.461-2.917-45.757-4.143a.527.527,0,0,1,0-1.051c14.583-1.217,40.368-4.158,45.755-4.158m0-4.144c-3.433,0-13.545,1.011-25.254,2.183-7.39.739-15.031,1.5-20.846,1.988A4.673,4.673,0,0,0,12.77,48.5c5.208.446,11.943,1.133,18.456,1.8,11.913,1.215,23.166,2.361,27.655,2.361h.095C62,52.591,66.5,50.185,66.5,43.841s-4.5-8.75-7.526-8.819Z"/><path class="cls-3" d="M69.236,86.3c-4.546,0-15.634-2.17-27.372-4.468-6.23-1.22-12.672-2.48-17.572-3.284a2.507,2.507,0,0,1,.406-4.981c5.744.063,13.512.164,21.251.263,11.61.151,23.614.306,27.849.319a2.5,2.5,0,0,1,2.463,2.88l-.41,2.737C74.943,84.94,71.128,86.3,69.236,86.3Z"/><path class="cls-3" d="M24.7,75.635H24.7c14.463.157,42.07.56,49.088.581a.429.429,0,0,1,.42.5l-.41,2.739c-.837,4.769-4.566,4.769-4.566,4.769-6.816,0-31.005-5.494-44.609-7.725a.434.434,0,0,1,.071-.863m0-4.145h0a4.58,4.58,0,0,0-.742,9.1c4.87.8,11.3,2.056,17.515,3.273,11.838,2.317,23.019,4.506,27.765,4.506,2.494,0,7.51-1.713,8.648-8.2.006-.034.012-.068.017-.1l.41-2.738A4.574,4.574,0,0,0,73.8,72.071c-4.219-.012-16.2-.167-27.779-.317-7.757-.1-15.547-.2-21.276-.263Z"/><path class="cls-4" d="M70.834,82.286c-4.384,0-15.589-1.142-27.451-2.35-6.519-.665-13.26-1.352-18.483-1.8a2.6,2.6,0,0,1,.008-5.181c5.833-.486,13.486-1.252,20.888-1.992,11.164-1.117,21.71-2.172,25.038-2.172,2.259.052,5.549,1.891,5.549,6.748s-3.29,6.695-5.5,6.747Z"/><path class="cls-3" d="M70.834,70.863s3.477.08,3.477,4.676-3.477,4.675-3.477,4.675c-6.754,0-31.461-2.916-45.757-4.142a.528.528,0,0,1,0-1.052c14.582-1.217,40.368-4.157,45.754-4.157m0-4.145c-3.433,0-13.545,1.012-25.253,2.183-7.39.739-15.031,1.5-20.846,1.989a4.672,4.672,0,0,0-.012,9.311c5.208.447,11.943,1.133,18.457,1.8,11.913,1.214,23.165,2.361,27.654,2.361h.095c3.026-.07,7.527-2.476,7.527-8.819s-4.5-8.75-7.527-8.82Z"/></svg>