<?xml version="1.0" encoding="utf-8"?>
<!-- Generator: Adobe Illustrator 23.0.2, SVG Export Plug-In . SVG Version: 6.00 Build 0)  -->
<svg version="1.1" id="Layer_1" xmlns="http://www.w3.org/2000/svg" xmlns:xlink="http://www.w3.org/1999/xlink" x="0px" y="0px"
	 viewBox="0 0 170 116" style="enable-background:new 0 0 170 116;" xml:space="preserve">
<style type="text/css">
	.st0{fill:#333333;}
	.st1{fill:#FFFFFF;}
</style>
<g>
	<path class="st0" d="M82.8,101.8c-3.5,0-7-0.1-10.3-0.4c-13.3-1.1-25.3-2.3-37.2-6.1c-6.7-2.2-13.6-4.7-19-10.4
		c-2.9-3-2.7-17.1-2.2-19.3c0.3-1.3,0.9-4.5,37.7-19.6C66.1,40.1,89,31.4,93.3,31.4c0.3,0,0.5,0,0.7,0.1c4.6,1,22.4,2.4,34.2,3.4
		c13,1,13.1,1.1,13.6,1.3c1.7,0.7,3.3,2,4.9,3.2c1.4,1.1,2.9,2.2,4.1,2.8c0.5,0.2,2,0.4,3.1,0.5c3.1,0.4,6,0.7,6.1,3.2
		c0,0.6-1.3,14.5-3.1,16.4c-0.4,0.4-1,0.7-1.6,0.7c-1.6,0-3.2-0.3-4.8-0.7c-0.6-0.1-1.2-0.3-1.8-0.4c-0.6-0.1-1.2-0.2-1.8-0.2
		c-3.7,0-6.7,1.9-7.8,3c3.2,5.5-0.4,15.8-0.4,15.9c-1.7,4.8-3.4,9.7-8.7,13c-5.8,3.7-12.2,5-18.3,5.8
		C100.3,101.1,91.3,101.8,82.8,101.8z"/>
	<g>
		<path class="st0" d="M93.3,33.4c0.1,0,0.2,0,0.3,0C101,35,140.1,37.6,141,38c2.9,1.3,6.1,4.8,9,6c1.9,0.8,7.9,0.7,8,2
			c0.1,1.3-1.7,14.9-2.6,14.9c0,0,0,0,0,0c-2,0-4.2-0.7-6.2-1c-0.7-0.1-1.4-0.2-2.1-0.2c-6,0-10.8,4.4-10,5.2c3,3.4,1,12,0,15
			c-1.8,5-3.3,9.1-7.8,12c-5.4,3.4-11.4,4.7-17.5,5.5c-9.6,1.4-19.2,2.3-28.8,2.3c-3.4,0-6.8-0.1-10.2-0.4c-12.4-1-24.8-2.1-36.7-6
			c-6.7-2.2-13.2-4.6-18.2-9.9c-1.9-2-2.3-14.7-1.7-17.5C17,61.1,86.7,33.4,93.3,33.4 M93.3,29.4L93.3,29.4L93.3,29.4
			c-6.3,0-40.8,14.2-42.3,14.8C13.2,59.7,12.5,62.9,12.1,65.2c-0.3,1.7-1.1,17,2.8,21.1c5.7,6,12.9,8.7,19.9,10.9
			c12.1,3.9,24.2,5.1,37.6,6.2c3.4,0.3,6.9,0.4,10.5,0.4c8.6,0,17.7-0.7,29.4-2.4c6.3-0.9,13-2.3,19.1-6.1c5.8-3.7,7.8-9.2,9.5-14
			c0.2-0.4,3.3-9.6,1-15.9c1.2-0.7,3.1-1.6,5.3-1.6c0.5,0,1,0,1.4,0.1c0.5,0.1,1.1,0.2,1.7,0.3c1.6,0.3,3.3,0.7,5.2,0.7
			c1.2,0,2.2-0.5,3-1.3c0.9-0.9,1.6-2.1,2.7-9.5c0-0.3,1-6.7,0.9-8.4c-0.2-4.1-4.7-4.7-7.9-5.1c-0.8-0.1-2.1-0.3-2.6-0.4
			c-1-0.4-2.3-1.5-3.6-2.5c-1.7-1.3-3.4-2.7-5.3-3.5c-0.9-0.4-1-0.4-14.2-1.5c-11.7-1-29.5-2.4-33.9-3.3
			C94.1,29.4,93.7,29.4,93.3,29.4L93.3,29.4z"/>
	</g>
</g>
<g>
	<path class="st1" d="M82.8,88c-3.5,0-7-0.1-10.3-0.4c-13.3-1.1-25.3-2.3-37.2-6.1c-6.7-2.2-13.6-4.7-19-10.4
		c-2.7-2.8-2.9-6.3-0.6-9.3c1.8-2.4,3.7-4.7,5.6-7c0.8-1,1.6-1.9,2.3-2.9c1-1.2,1.9-2.6,2.8-4c1.4-2.1,2.8-4.2,4.7-6.1
		C32,41,32.9,40,33.8,39c2-2.2,4.2-4.5,6.6-6.4c5.3-4,10.2-6.7,15.4-8.3c3.6-1.1,7.5-1.7,11.5-1.7c1.1,0,2.2,0,3.3,0.1
		c5.8,0.4,11,1.9,15.6,4.4c0.8,0.5,1.6,0.9,2.5,1.4c-0.6-3.5,0.5-7,3.3-10.3c4.3-4.9,8.4-8.4,14.5-9.5c1.8-0.3,3.6-0.5,5.3-0.5
		c6.4,0,12.8,2.1,18.9,6.2c2.6,1.8,5,4.4,6.4,7.3c1.3,2.6,2.3,5.4,3.2,8c0.5,1.5,1.1,3.1,1.7,4.7c0.2,0.6,0.8,1.2,1.1,1.3
		c1.4,0.6,2.9,1.2,4.5,1.7c1.4,0.5,2.9,1,4.4,1.7c2.2,0.9,3.5,1.8,5.2,2.9c0.8,0.6,3.4,2.3,2.4,4.5c-0.7,1.7-3.1,2.5-4.4,2.5
		c-1.6,0-3.2-0.3-4.8-0.7c-0.6-0.1-1.2-0.3-1.8-0.4c-1.4-0.2-2.8-0.4-4.1-0.4c-4.3,0-8.4,1.3-12.2,3.9c0.4,0.4,0.8,0.8,1.2,1.3
		c3.6,4.1,5.4,8.7,5.3,13.3c-0.2,5.4-3.1,10-8.8,13.6c-5.8,3.7-12.2,5-18.3,5.8C100.3,87.3,91.3,88,82.8,88z"/>
	<g>
		<path class="st0" d="M112,10.4c6.4,0,12.3,2.2,17.8,5.9c2.3,1.6,4.5,4,5.8,6.5c2,4,3.2,8.4,4.8,12.5c0.4,1,1.3,2,2.2,2.4
			c2.9,1.3,5.9,2.1,8.8,3.4c1.9,0.8,3.1,1.6,4.9,2.8c0.7,0.5,2,1.4,1.7,2c-0.3,0.7-1.7,1.3-2.6,1.3c0,0,0,0,0,0c-2,0-4.2-0.7-6.2-1
			c-1.5-0.3-3-0.4-4.4-0.4c-5.4,0-10.5,1.8-15.3,5.6c0.9,1,1.9,1.9,2.7,2.9c3,3.4,4.9,7.5,4.8,11.9c-0.1,5.3-3.3,9.1-7.8,12
			c-5.4,3.4-11.4,4.7-17.5,5.5C102,85,92.4,86,82.8,86c-3.4,0-6.8-0.1-10.2-0.4c-12.4-1-24.8-2.1-36.7-6c-6.7-2.2-13.2-4.6-18.2-9.9
			c-1.9-2-2.3-4.4-0.5-6.7c2.6-3.3,5.2-6.5,7.9-9.8c2.6-3.2,4.4-7,7.4-10c3-3.1,5.8-6.5,9.2-9.1c4.5-3.4,9.3-6.2,14.8-7.9
			c3.6-1.1,7.3-1.6,11-1.6c1.1,0,2.1,0,3.2,0.1c5,0.4,10.2,1.6,14.8,4.2c2.6,1.4,5.2,2.9,8,4.5c-4.5-5.2-2.8-10.3,0.2-13.8
			c4-4.5,7.8-7.8,13.4-8.8C108.7,10.5,110.3,10.4,112,10.4 M112,6.4c-1.9,0-3.8,0.2-5.7,0.5C99.2,8.1,94.5,12.5,90.6,17
			c-2.2,2.6-3.6,5.3-3.9,8.1c-4.7-2.5-10-3.9-15.8-4.3c-1.2-0.1-2.3-0.1-3.5-0.1c-4.3,0-8.3,0.6-12.1,1.8c-5.4,1.7-10.5,4.4-16,8.6
			c-2.6,2-4.8,4.3-6.9,6.6c-0.9,1-1.8,2-2.7,2.9c-2,2-3.5,4.3-4.9,6.4c-0.9,1.4-1.8,2.7-2.7,3.8c-0.8,0.9-1.5,1.9-2.3,2.8
			c-1.9,2.3-3.8,4.6-5.6,7c-2.9,3.8-2.6,8.3,0.8,11.9c5.7,6,12.9,8.7,19.9,10.9c12.1,3.9,24.2,5.1,37.6,6.2
			c3.4,0.3,6.9,0.4,10.5,0.4c8.6,0,17.7-0.7,29.4-2.4c6.3-0.9,13-2.3,19.1-6.1c6.3-4,9.5-9.1,9.7-15.2c0.1-5-1.7-9.9-5.4-14.2
			c2.9-1.6,5.9-2.3,9.1-2.3c1.2,0,2.5,0.1,3.7,0.3c0.5,0.1,1.1,0.2,1.7,0.3c1.6,0.3,3.3,0.7,5.2,0.7c2.2,0,5.2-1.3,6.2-3.7
			c0.8-1.7,0.8-4.3-3.1-7c-1.7-1.2-3.2-2.1-5.5-3.1c-1.5-0.6-3-1.2-4.5-1.7c-1.5-0.5-2.9-1-4.2-1.6c-0.1-0.1-0.2-0.2-0.2-0.3
			c-0.6-1.5-1.1-3-1.7-4.6c-0.9-2.7-1.9-5.6-3.3-8.3c-1.6-3.1-4.2-6.1-7.1-8C125.5,8.6,118.8,6.4,112,6.4L112,6.4z"/>
	</g>
</g>
</svg>
