<?xml version="1.0" encoding="utf-8"?>
<svg version="1.1" id="Layer_1" x="0px" y="0px" viewBox="0 0 664 768" style="enable-background:new 0 0 664 768;" xmlns="http://www.w3.org/2000/svg">
  <style type="text/css">
	.st0{fill:#FFFFFF;}
	.st1{fill:#47ABAC;}
</style>
  <path class="st0" d="M330.5,22.3L36.7,686.5c0,0,17.6,63.7,290.8,63.7s296.7-63.7,296.7-63.7L330.5,22.3z"/>
  <path class="st1" d="M328.5,90L69.6,679.5c0,0,43.7,39.8,256.4,39.8s261.5-39.8,261.5-39.8L328.5,90z M380.1,461h-22 c-8.8,0-10.6,3.6-10.6,12.7v19.9h32.6l-3.4,32.6l-29.2,0v114.2l-48.9,0V526.2h-32.6v-32.6h32.6v-37.7c0-28.9,15.2-43.9,49.4-43.9 h32.2V461z"/>
</svg>