<?xml version="1.0" encoding="utf-8"?>
<svg viewBox="0 0 139.875 92.553" xmlns="http://www.w3.org/2000/svg">
  <defs>
    <style>
    	.fb{fill:#333;}
    	.str{stroke:#333;stroke-width:3.8px;}
    	.ml{stroke-miterlimit:10;}
    	.fw{fill:#fff;}
    	.fn{fill:none;}
    </style>
  </defs>
  <path class="cls-1 fb" d="M126.275,22.491c.372,4.477-17.811,8.168-40.619,8.168s-40.989-3.691-40.613-8.168c.368-4.4,18.551-7.9,40.619-7.9S125.91,18.093,126.275,22.491Z" transform="translate(-14.876 -12.525)"/>
  <path class="cls-2 str fb" d="M151.726,82.944c-.6,5.9-33.616,20.7-67.918,20.223s-65.816-13.121-66.259-19c-.206-2.744-.608-8.369-.608-8.369l135.6-.88S152.144,78.862,151.726,82.944Z" transform="translate(-14.876 -12.525)"/>
  <path class="fw str" d="M152.835,72.711c-.686,6.673-32.317,23.869-68.693,23.359S17.284,80.615,16.784,73.958c-.544-7.234,26.487-2.737,68.774-2.144S153.58,65.461,152.835,72.711Z" transform="translate(-14.876 -12.525)"/>
  <path class="fw str" d="M127.262,23.429c1.152-5.7-17.044-9-41.175-9s-42.813,3.305-41.66,9a105.154,105.154,0,0,1,5.146,23.787c1.069,11.761-.273,25.735-.148,26.827.687,6.01,16.942,11.865,36.419,11.865s35.731-5.855,36.419-11.865c.129-1.132-1.22-9.783-.156-21.32C123.3,39.818,127.226,23.605,127.262,23.429Z" transform="translate(-14.876 -12.525)"/>
  <path class="cls-2 str fb" d="M85.852,65.464c-18.437,0-35.1-2.926-35.915-10.632,0,0,.252,6.118.334,6.762.789,6.249,16.7,11.115,35.581,11.115s34.792-4.866,35.581-11.115c.074-.585.146-4.259.55-7.5C120.761,60.573,104.985,65.464,85.852,65.464Z" transform="translate(-14.876 -12.525)"/>
  <path class="fn str" d="M44.393,23.087C45.487,28.5,64,31.735,85.844,31.735s40.36-3.29,41.454-8.709" transform="translate(-14.876 -12.525)"/>
</svg>
