<?xml version="1.0" encoding="utf-8"?>
<svg version="1.1" id="Layer_1" x="0px" y="0px" viewBox="130.286 95.131 350.13 420.187" style="enable-background:new 0 0 612.3 634.3;" xmlns="http://www.w3.org/2000/svg" xmlns:xlink="http://www.w3.org/1999/xlink">
  <style type="text/css">
	.st0{display:none;}
	.st1{display:inline;}
	.st2{fill:#FFFFFF;}
	.st3{fill:#333333;}
	.st4{display:inline;fill:#333333;}
	.st5{fill:url(#SVGID_1_);}
	.st6{opacity:0.2;}
	.st7{display:inline;opacity:0.1;fill:#FFFFFF;enable-background:new    ;}
	.st8{fill:#FFFFFF;stroke:#333333;stroke-width:7.7061;stroke-linejoin:round;stroke-miterlimit:10;}
</style>
  <g class="st0">
    <g class="st1">
      <path class="st2" d="M129.7,608.8c-19.1,0-36.4-4.2-51.3-12.6c-24.1-13.5-41.2-37-45.7-62.9c-2.1-12.2-1.8-25.5-1.5-38.5 c0.1-4.7,0.2-9.5,0.2-14.2V186.9c0-7.4,0-14.9,0-22.3c0-14.6,0-29.7,0-44.6c0.1-24.3,10.4-47.2,28.9-64.2 c17.9-16.5,42.2-26.1,66.7-26.2c6.4,0,12.9,0,19.3,0c6.5,0,12.9,0,19.4,0s12.9,0,19.4,0h300c27.9,0,54.3,11.5,72.6,31.7 c14.7,16.2,22.8,37.1,22.9,59c0,4.9,0,9.7,0,14.6v7.3v340.3c0,4.5,0.1,9,0.2,13.5c0.3,13.5,0.6,27.4-1.9,40 c-6,29.4-28,54.8-57.5,66.2c-12,4.7-25.7,6.8-43,6.8H129.7V608.8z"/>
      <path class="st3" d="M146.4,37.4c6.4,0,12.9,0,19.3,0c6.5,0,12.9,0,19.4,0h122.6h122.1h55.3c12.4,0,25.1,2.6,36.5,7.6 c11.5,5,22,12.4,30.2,21.4c13.4,14.7,20.8,33.8,20.9,53.6c0,4.9,0,9.7,0,14.6c0,2.4,0,4.9,0,7.3v107.2v128.6v74.4v30.1 c0,4.6,0.1,9.2,0.2,13.7c0.3,13,0.6,26.5-1.8,38.2c-5.5,26.8-25.6,49.9-52.5,60.3c-11.2,4.3-23.6,6.3-40.2,6.3h-84H265.3H156.1 h-26.3c-17.8,0-33.7-3.9-47.4-11.6C60.3,577,44.7,555.5,40.6,532c-2-11.4-1.7-24.4-1.4-36.9c0.1-4.7,0.2-9.6,0.2-14.4v-55.4V313.5 V186.9c0-7.4,0-14.9,0-22.3c0-14.6,0-29.7,0-44.6c0.1-22.1,9.4-42.9,26.3-58.4c16.5-15.2,38.8-24,61.4-24.1 C132.9,37.4,139.2,37.4,146.4,37.4 M146.4,21.5c-6.5,0-12.9,0-19.4,0C72.6,21.8,23.8,64,23.5,119.9c-0.1,22.3,0,44.6,0,67 c0,42.2,0,84.4,0,126.7c0,37.3,0,74.5,0,111.8c0,18.5,0,36.9,0,55.4c0,17.7-1.7,36.5,1.4,54c5,29,24.1,54.1,49.7,68.4 c17,9.5,35.8,13.6,55.2,13.6c8.8,0,17.5,0,26.3,0c36.4,0,72.8,0,109.2,0c43.1,0,86.1,0,129.2,0c28,0,56,0,84,0 c15.7,0,31.1-1.6,45.9-7.4c31-12,55.7-39.2,62.4-72c3.6-17.7,1.9-37.1,1.9-55.1c0-10,0-20.1,0-30.1c0-24.8,0-49.6,0-74.4 c0-42.9,0-85.7,0-128.6c0-35.7,0-71.5,0-107.2c0-7.3,0-14.6,0-22c-0.1-23.8-8.9-46.6-25-64.3c-19.9-21.9-49-34.3-78.5-34.3 c-18.4,0-36.9,0-55.3,0c-40.7,0-81.4,0-122.1,0c-40.9,0-81.7,0-122.6,0C172.3,21.5,159.3,21.5,146.4,21.5L146.4,21.5z"/>
    </g>
    <g class="st1">
      <path class="st3" d="M485.2,21.5c-76.8,0-153.5,0-230.3,0c-38.2,0-76.4-0.1-114.5,0c-14.8,0-29,0.3-43.3,4.5 C84.7,29.7,73,35.6,62.7,43.4C42.2,59,27.9,82,24.4,107.6c-2.3,17.2-0.9,35.2-0.9,52.5c0,18.9,0,37.9,0,56.8c0,76.5,0,153,0,229.4 c0,18.7-0.1,37.3-0.4,56c-0.3,16.3,0.3,32.7,6,48.2c10.2,28,33.6,50.2,61.6,60c16.5,5.8,33.3,6.3,50.5,6.3c19,0,38,0,57,0 c38,0,76,0,114,0c38.4,0,76.8,0,115.2,0c18.6,0,37.2,0.4,55.8-0.1c17.2-0.4,34.2-3.3,49.7-11c25.1-12.4,45-35.2,52.5-62.3 c4.6-16.7,3.8-34.1,3.5-51.2c-0.4-18.8-0.1-37.7-0.1-56.5c0-76.1,0-152.2,0-228.3c0-19.3,0-38.5,0-57.8c0-17,1.4-34.4-2.5-51.1 c-7.1-30.4-29.1-55.3-57.5-67.8C515,24.7,500.1,21.5,485.2,21.5z"/>
    </g>
    <path class="st4" d="M485.2,548c-16,0-32,0-48,0c-36.4,0-72.9,0-109.3,0c-39.5,0-79,0-118.5,0c-25.2,0-50.3,0-75.5,0 c-10.4,0-20.7-0.4-31-2.9c-26.6-6.4-50.1-23.7-64.3-47.1c-10.2-16.7-15-35.7-15-55.2c0-7.6,0-15.1,0-22.7c0-33.4,0-66.8,0-100.2 c0-39.8,0-79.6,0-119.4c0-24.8,0-49.6,0-74.4c0-14.8,2-29.3,7.7-43.2c10.4-25.3,30.9-45.8,56.1-56.4c22.1-9.3,45.2-7.9,68.5-7.9 c33,0,65.9,0,98.9,0c40.4,0,80.7,0,121.1,0c30.3,0,60.6,0,91,0c6,0,11.9,0,17.9,0c22.6,0.1,44.7,7.3,62.8,21 c21.8,16.5,36.6,41.4,40.3,68.5c1.1,8.1,0.9,16.2,0.9,24.4c0,28.6,0,57.1,0,85.7c0,40.1,0,80.2,0,120.2c0,30.4,0,60.9,0,91.3 c0,4.9,0,9.7,0,14.6c-0.1,27.7-11.4,54.4-31.2,73.9C538.3,537.1,512.1,548,485.2,548z"/>
    <g class="st1">
      <path class="st2" d="M133.2,546c-9.6,0-20.9-0.4-32.1-3.5c-25-6.9-46.6-23.9-59.4-46.7c-8.2-14.6-12.3-31.2-12.3-49.4v-320 c0-15.7,2.4-29.2,7.3-41.1c9.8-23.8,29.1-43.2,52.9-53.2c16.7-7,34.2-7.6,50.8-7.6c2.6,0,5.2,0,7.7,0c2.6,0,5.2,0,7.9,0h311.7 h11.4c1.9,0,3.8,0,5.7,0c22.5,0.1,44.3,7.8,61.5,21.7c20.5,16.6,33.6,41,36,67c0.5,5.3,0.4,10.6,0.4,16.2c0,1.4,0,2.7,0,4.1v300 v4.9c0,3.3,0,6.6,0,9.8c-0.1,26.1-10.9,51.5-29.4,69.6c-18.1,17.7-42.9,27.9-68.1,27.9h-352V546z"/>
      <path class="st3" d="M140.5,30.6c2.6,0,5.1,0,7.7,0c2.6,0,5.3,0,7.9,0H206h49.9h121.4h90.4c1.9,0,3.8,0,5.7,0c1.9,0,3.8,0,5.7,0 c1.9,0,3.8,0,5.7,0c21.1,0.1,41.6,7.3,57.8,20.4c19.3,15.6,31.6,38.5,33.8,62.9c0.5,5,0.4,10.1,0.4,15.6c0,1.4,0,2.8,0,4.1V221 v121.5v91.1c0,1.7,0,3.3,0,5c0,3.2,0,6.5,0,9.8c-0.1,24.5-10.2,48.4-27.6,65.4c-17,16.7-40.3,26.2-63.9,26.2h-48.6H327h-59.6 h-59.6h-37.4H133c-9.2,0-20-0.4-30.5-3.3C79.3,530.2,59,514.2,47,492.8c-7.7-13.7-11.6-29.4-11.6-46.5v-12.1v-12.1V320.8V201.1 v-74.6c0-14.9,2.2-27.6,6.8-38.8c9.3-22.5,27.4-40.7,49.7-50C107.6,31.2,124.5,30.6,140.5,30.6 M140.5,18.7 c-18.1,0-35.9,0.8-53.1,8C62.1,37.2,41.7,57.8,31.3,83.1c-5.7,13.9-7.7,28.4-7.7,43.3c0,24.9,0,49.7,0,74.6c0,39.9,0,79.8,0,119.7 c0,33.8,0,67.7,0,101.5c0,8,0,16.1,0,24.1c0,18.4,4.1,36.2,13.1,52.3c13.4,24,36.4,42.2,63,49.6c11.1,3.1,22.3,3.7,33.6,3.7 c24.9,0,49.8,0,74.7,0c39.7,0,79.4,0,119.1,0c36.5,0,73,0,109.5,0c16.2,0,32.4,0,48.6,0c26.9,0,53.1-10.8,72.3-29.6 c19.8-19.4,31-46.1,31.2-73.9c0-4.9,0-9.9,0-14.8c0-30.4,0-60.7,0-91.1c0-40.5,0-81,0-121.5c0-29.1,0-58.3,0-87.4 c0-6.9,0.2-13.9-0.4-20.8c-2.5-27.7-16.6-53.6-38.2-71.1c-18.5-14.9-41.5-22.9-65.2-23c-1.9,0-3.8,0-5.7,0c-3.8,0-7.6,0-11.4,0 c-30.1,0-60.3,0-90.4,0c-40.5,0-81,0-121.4,0c-33.3,0-66.6,0-99.8,0C150.8,18.7,145.6,18.7,140.5,18.7L140.5,18.7z"/>
    </g>
    <g class="st1">
      <g>
        <linearGradient id="SVGID_1_" gradientUnits="userSpaceOnUse" x1="306.1223" y1="115.9" x2="306.1223" y2="592.799" gradientTransform="matrix(1 0 0 -1 0 636)">
          <stop offset="0.001" style="stop-color:#66BDF2"/>
          <stop offset="1" style="stop-color:#0B5FC1"/>
        </linearGradient>
        <path class="st5" d="M127,520.1c-26.4,0-51.3-14.2-64.9-36.9c-7.7-12.8-10.7-27.1-10.7-41.9c0-22.2,0-44.4,0-66.6 c0-37.3,0-74.6,0-111.9c0-34.1,0-68.2,0-102.2c0-10.1,0-20.2,0-30.3c0-8.5,0-16.9,2-25.3c5.9-25.4,25.2-46.5,50-54.7 c9.7-3.2,19.6-3.8,29.6-3.8c22.9,0,45.7,0,68.6,0c36.9,0,73.9,0,110.8,0c36.1,0,72.3,0,108.4,0c20.5,0,41,0,61.5,0 c14.7,0,28.9,3.1,41.6,10.7c22.7,13.6,36.7,38.5,36.9,64.9c0.1,15.7,0,31.5,0,47.2c0,35.3,0,70.6,0,105.9c0,36.6,0,73.1,0,109.7 c0,19.5,0,39,0,58.5c-0.1,42.1-34,76.4-76.2,76.6c-17.2,0.1-34.4,0-51.7,0c-35,0-70.1,0-105.1,0c-37.6,0-75.1,0-112.7,0 c-25.7,0-51.4,0-77.1,0C134.4,520.1,130.7,520.1,127,520.1z"/>
      </g>
      <g class="st6">
        <path d="M127,520.1c-26.4,0-51.3-14.2-64.9-36.9c-7.7-12.8-10.7-27.1-10.7-41.9c0-22.2,0-44.4,0-66.6c0-37.3,0-74.6,0-111.9 c0-34.1,0-68.2,0-102.2c0-10.1,0-20.2,0-30.3c0-8.5,0-16.9,2-25.3c5.9-25.4,25.2-46.5,50-54.7c9.7-3.2,19.6-3.8,29.6-3.8 c22.9,0,45.7,0,68.6,0c36.9,0,73.9,0,110.8,0c36.1,0,72.3,0,108.4,0c20.5,0,41,0,61.5,0c14.7,0,28.9,3.1,41.6,10.7 c22.7,13.6,36.7,38.5,36.9,64.9c0.1,15.7,0,31.5,0,47.2c0,35.3,0,70.6,0,105.9c0,36.6,0,73.1,0,109.7c0,19.5,0,39,0,58.5 c-0.1,42.1-34,76.4-76.2,76.6c-17.2,0.1-34.4,0-51.7,0c-35,0-70.1,0-105.1,0c-37.6,0-75.1,0-112.7,0c-25.7,0-51.4,0-77.1,0 C134.4,520.1,130.7,520.1,127,520.1z"/>
      </g>
    </g>
  </g>
  <g id="Layer_4" class="st0">
    <g class="st1">
      <image style="overflow:visible;enable-background:new    ;" width="211" height="192" transform="matrix(0.9948 0 0 0.9948 -3.0335 -18.8735)" xlink:href="66E61C67990D2C.png"/>
      <g>
        <path class="st2" d="M132.8,73.2c-3.2-1.8-7.2-2.6-11.6-2.1c1.5-7,0-13.2-5.4-16.3c-9.9-5.5-24.1-4.9-36.5,6.9 C67,73.6,63.9,89.4,72.5,97.1c7.3,6.5,20.8,4.9,32.2-3c5.2,3.6,15.1,2.5,22.9-2.9C135.9,85.4,138.8,76.6,132.8,73.2z"/>
      </g>
    </g>
    <path class="st7" d="M127,333c-26.3,0-47.8-21.4-47.8-47.8v-163c0-26.3,21.4-47.8,47.8-47.8h358.2c26.3,0,47.8,21.4,47.8,47.8 v163.1c0,26.3-21.4,47.8-47.8,47.8L127,333L127,333z"/>
  </g>
  <g>
    <path class="st3" d="M334.1,170.3v-35.5l-56.2,56.8l55.8,48.2l0.4-31.6c54.5,13.5,95,64.5,95,125.3c0,71.2-55.5,128.9-123.9,128.9 s-123.9-57.7-123.9-128.9c0-44.5,21.8-85.5,54.9-108.7L209.9,197c-40.5,30.7-66.9,80.4-66.9,136.5c0,93.2,72.6,168.7,162.2,168.7 s162.2-75.5,162.2-168.7C467.3,250.5,409.8,184.5,334.1,170.3z"/>
    <path class="st3" d="M305,506.5c-91.5,0-166-77.4-166-172.5c0-55,25.6-107.1,68.4-139.5c1.6-1.2,3.8-1,5.1,0.4l26.2,27.8 c0.8,0.8,1.1,1.9,1,3s-0.7,2.1-1.6,2.8c-32.8,23-53.2,63.5-53.2,105.5c0,68.9,53.9,125,120.1,125S425,402.9,425,334 c0-56.4-35.7-105.1-87.4-120.3l-0.3,26.6c0,1.5-0.9,2.9-2.3,3.5c-1.4,0.6-3,0.3-4.1-0.7l-55.8-48.2c-0.8-0.7-1.2-1.7-1.3-2.7 c0-1,0.4-2.1,1.1-2.8l56.2-56.8c1.1-1.1,2.8-1.4,4.2-0.9c1.4,0.6,2.4,2,2.4,3.6v32.3C415.2,183.7,471,251.5,471,334 C471,429.1,396.5,506.5,305,506.5z M208.5,202.2c-39.3,31.1-62.6,79.9-62.6,131.3c0,90.9,71,164.8,158.3,164.8 s158.3-73.9,158.3-164.8c0-79.8-54.7-145.3-130.1-159.4c-1.8-0.3-3.1-1.9-3.1-3.8v-26.1l-46.8,47.2l46.5,39.7l0.3-23 c0-1.2,0.6-2.3,1.5-3c0.9-0.7,2.1-1,3.3-0.7c57.7,14.3,97.9,67.4,97.9,129c0,73.2-57.3,132.7-127.8,132.7 c-70.4,0-127.8-59.5-127.8-132.7c0-43,20.2-84.4,52.9-109.2L208.5,202.2z"/>
  </g>
  <g>
    <g>
      <path class="st3" d="M359.9,401.6c-2.1,0-3.9-0.7-5.3-2.2l-50-50l-50,50c-1.5,1.5-3.3,2.2-5.3,2.2s-3.9-0.7-5.3-2.2l-8.2-8.2 c-1.5-1.5-2.2-3.3-2.2-5.3c0-2.1,0.7-3.9,2.2-5.3l50-50l-50-50c-1.5-1.5-2.2-3.3-2.2-5.3c0-2.1,0.7-3.9,2.2-5.3l8.2-8.2 c1.5-1.5,3.3-2.2,5.3-2.2c2.1,0,3.9,0.7,5.3,2.2l50,50l50-50c1.5-1.5,3.3-2.2,5.3-2.2c2.1,0,3.9,0.7,5.3,2.2l8.2,8.2 c1.5,1.5,2.2,3.3,2.2,5.3s-0.7,3.9-2.2,5.3l-49.8,49.8l50,50c2.9,2.9,2.9,7.7,0,10.6l-8.2,8.2 C363.7,400.7,361.8,401.6,359.9,401.6z"/>
      <path class="st3" d="M249.3,260.6c1.6,0,3.3,0.6,4.5,1.8l50.8,50.8l50.8-50.8c1.2-1.2,2.8-1.8,4.5-1.8c1.6,0,3.3,0.6,4.5,1.8 l8.2,8.2c2.4,2.4,2.4,6.4,0,8.8l-50.8,50.8l50.8,50.8c2.4,2.4,2.4,6.4,0,8.8l-8.2,8.2c-1.2,1.2-2.8,1.8-4.5,1.8 c-1.6,0-3.3-0.6-4.5-1.8l-50.8-50.8l-50.8,50.8c-1.2,1.2-2.8,1.8-4.5,1.8s-3.3-0.6-4.5-1.8l-8.2-8.2c-2.4-2.4-2.4-6.4,0-8.8 l50.8-50.8l-50.8-50.8c-2.4-2.4-2.4-6.4,0-8.8l8.2-8.2C246.1,261.2,247.7,260.6,249.3,260.6 M249.3,258.1c-2.4,0-4.6,1-6.3,2.5 l-8.2,8.2c-1.7,1.7-2.5,3.9-2.5,6.3c0,2.4,1,4.6,2.5,6.3l49,49l-49,49c-1.7,1.7-2.5,3.9-2.5,6.3c0,2.4,1,4.6,2.5,6.3l8.2,8.2 c1.7,1.7,3.9,2.5,6.3,2.5s4.6-1,6.3-2.5l49-49l49,49c1.7,1.7,3.9,2.5,6.3,2.5c2.4,0,4.6-1,6.3-2.5l8.2-8.2 c1.7-1.7,2.5-3.9,2.5-6.3c0-2.4-1-4.6-2.5-6.3l-49-49l49-49c1.7-1.7,2.5-3.9,2.5-6.3c0-2.4-1-4.6-2.5-6.3l-8.2-8.2 c-1.7-1.7-3.9-2.5-6.3-2.5c-2.4,0-4.6,1-6.3,2.5l-49,49.1l-49-49C253.9,259,251.7,258.1,249.3,258.1L249.3,258.1z"/>
    </g>
    <path class="st8" d="M372.6,359.8L321.8,309l50.8-50.8c2.4-2.4,2.4-6.4,0-8.8l-8.2-8.2c-2.4-2.4-6.4-2.4-8.8,0l-50.8,50.8 l-50.8-50.8c-2.4-2.4-6.4-2.4-8.8,0l-8.2,8.2c-2.4,2.4-2.4,6.4,0,8.8l50.8,50.8l-50.8,50.8c-2.4,2.4-2.4,6.4,0,8.8l8.1,8.3 c2.4,2.4,6.4,2.4,8.8,0l50.8-50.8l50.8,50.8c2.4,2.4,6.4,2.4,8.8,0l8.2-8.2C375,366.3,375,362.3,372.6,359.8z"/>
  </g>
  <path class="st8" d="M334.1,138.8v-35.5l-56.2,56.8l55.8,50.9l0.4-31.6c54.5,13.5,95,64.5,95,125.3c0,71.2-55.5,128.9-123.9,128.9 S181.2,376,181.2,304.8c0-44.5,21.8-85.5,54.9-108.7l-26.2-27.8C169.4,199,143,248.6,143,304.8c0,93.2,72.6,168.7,162.2,168.7 s162.2-75.5,162.2-168.7C467.3,221.9,409.8,153,334.1,138.8z"/>
</svg>