<?xml version="1.0" encoding="utf-8"?>
<svg version="1.1" id="Layer_1" x="0px" y="0px" viewBox="0 0 664 768" style="enable-background:new 0 0 664 768;" xmlns="http://www.w3.org/2000/svg">
  <style type="text/css">
	.st0{fill:#FFFFFF;}
	.st1{fill:#F2A551;}
</style>
  <path class="st0" d="M330.5,22.3L36.7,686.5c0,0,17.6,63.7,290.8,63.7s296.7-63.7,296.7-63.7L330.5,22.3z"/>
  <path class="st1" d="M328.5,90L69.6,679.5c0,0,43.7,39.8,256.4,39.8s261.5-39.8,261.5-39.8L328.5,90z M421.3,495.7 c3.1,68.1-47.7,144.1-137.7,144.1c-27.4,0-52.8-8-74.2-21.8c25.7,3,51.4-4.1,71.7-20.1c-21.2-0.4-39.1-14.4-45.3-33.6 c7.6,1.5,15.1,1,21.9-0.8c-23.3-4.7-39.4-25.7-38.9-48.1c6.5,3.6,14,5.8,21.9,6.1c-21.6-14.4-27.7-42.9-15-64.7 c23.9,29.3,59.6,48.6,99.8,50.6c-7.1-30.3,15.9-59.5,47.2-59.5c13.9,0,26.5,5.9,35.3,15.3c11-2.2,21.4-6.2,30.8-11.8 c-3.6,11.3-11.3,20.8-21.3,26.8c9.8-1.2,19.1-3.8,27.8-7.6C439,480.4,430.8,488.9,421.3,495.7z"/>
</svg>