<?xml version="1.0" encoding="utf-8"?>
<!-- Generator: Adobe Illustrator 23.0.3, SVG Export Plug-In . SVG Version: 6.00 Build 0)  -->
<svg version="1.1" id="Layer_1" xmlns="http://www.w3.org/2000/svg" xmlns:xlink="http://www.w3.org/1999/xlink" x="0px" y="0px"
	 viewBox="0 0 48 48" style="enable-background:new 0 0 48 48;" xml:space="preserve">
<style type="text/css">
	.st0{fill:#FFFFFF;}
</style>
<path class="st0" d="M7.4,41.3c-1.3,0-2.4-0.5-3.3-1.4s-1.4-2-1.4-3.3V11.4c0-1.3,0.5-2.4,1.4-3.4c0.9-0.9,2-1.4,3.3-1.4h25.1
	c1.3,0,2.4,0.5,3.3,1.4s1.4,2,1.4,3.3v10.3l8-8v20.5l-8-8v10.3c0,1.3-0.5,2.4-1.4,3.3s-2.1,1.4-3.3,1.4H7.4z M7.4,36.5h25.1V11.4
	H7.4V36.5z M7.4,36.5V11.4V36.5z"/>
</svg>
